<svg width="96" height="96" viewBox="0 0 96 96" fill="none" xmlns="http://www.w3.org/2000/svg">
<g clip-path="url(#clip0_5_335)">
<path d="M47.9999 95.6241C74.3024 95.6241 95.6249 74.3017 95.6249 47.9991C95.6249 21.6966 74.3024 0.374207 47.9999 0.374207C21.6974 0.374207 0.375 21.6966 0.375 47.9991C0.375 74.3017 21.6974 95.6241 47.9999 95.6241Z" fill="#343029"/>
<path d="M47.9985 93.8765C73.3359 93.8765 93.8759 73.3365 93.8759 47.9991C93.8759 22.6617 73.3359 2.1217 47.9985 2.1217C22.6611 2.1217 2.12109 22.6617 2.12109 47.9991C2.12109 73.3365 22.6611 93.8765 47.9985 93.8765Z" fill="#957844"/>
<path d="M8.82008 43.7031L7.88875 40.645L7.88706 40.5298L7.87012 40.5874V40.5857V40.5891L6.97943 43.7031L6.96589 43.6879L3.77734 44.6633L3.97716 44.6616L6.94726 45.5099L6.94218 45.5167L7.91246 48.7052L7.87859 44.7412L7.88028 44.7395L7.91415 48.6849L8.80315 45.5743L11.9646 44.6125H11.9917L8.82008 43.7031ZM6.99975 45.4557L4.33276 44.6937L7.77868 44.665L6.99975 45.4557ZM7.04547 43.715L7.8261 40.982L7.85658 44.5109L7.04547 43.715ZM7.97511 48.2328L7.94463 44.753L8.74388 45.5387L7.97511 48.2328ZM8.053 44.5769L8.8404 43.776L11.5379 44.5498L8.053 44.5769Z" fill="#343029"/>
<path d="M89.0327 43.7031L88.1014 40.645L88.0997 40.5298L88.0828 40.5874V40.5857V40.5891L87.1921 43.7031L87.1768 43.6879L83.9883 44.6633L84.1881 44.6616L87.1582 45.5099L87.1514 45.5167L88.1217 48.7052L88.0878 44.7412L88.0895 44.7395L88.1234 48.6849L89.0124 45.5743L92.1738 44.6125H92.2009L89.0327 43.7031ZM87.2124 45.4557L84.5454 44.6937L87.9913 44.665L87.2124 45.4557ZM87.2581 43.715L88.0387 40.982L88.0692 44.5109L87.2581 43.715ZM88.1877 48.2328L88.1573 44.753L88.9565 45.5387L88.1877 48.2328ZM88.2656 44.5769L89.053 43.776L91.7505 44.5498L88.2656 44.5769Z" fill="#343029"/>
<path d="M9.68939 38.6655L5.86755 37.5818L5.69483 38.1931L5.24609 37.5411L5.74224 35.7919L9.52683 36.8655L9.70802 36.2237L10.1855 36.918L9.68939 38.6655Z" fill="#343029"/>
<path d="M10.5817 35.7157L6.85635 34.3407L6.63621 34.9368L6.23828 34.251L6.8682 32.5458L10.558 33.9089L10.7883 33.2824L11.2116 34.0105L10.5817 35.7157Z" fill="#343029"/>
<path d="M11.266 30.6645C11.5251 30.6035 11.791 30.4562 12.067 30.2242C12.3413 29.9905 12.5648 29.7162 12.7358 29.403C12.7629 29.3539 12.7985 29.2777 12.8476 29.1727L11.6149 28.5021L11.0357 29.5655L10.4685 29.2573L10.9291 28.4107L9.73357 27.7604C9.49142 28.2041 9.34918 28.6427 9.30515 29.0761L10.1095 29.0694L9.77421 29.6841L8.03516 29.6976L8.37044 29.0829H8.72265C8.74805 28.5157 8.89198 27.9907 9.15275 27.5115C9.42369 27.0137 9.73018 26.6801 10.0739 26.5091C10.416 26.338 10.7665 26.3499 11.1238 26.5446C11.4472 26.7207 11.642 26.9781 11.7097 27.3185C12.1144 27.0035 12.5428 26.9679 12.9966 27.2152C13.1524 27.2998 13.2811 27.4031 13.3844 27.5217C13.4877 27.6419 13.5622 27.7706 13.6062 27.9077C13.6519 28.0449 13.6773 28.1905 13.6841 28.3412C13.6909 28.4936 13.679 28.6477 13.6452 28.8069C13.6113 28.9661 13.5673 29.1202 13.5114 29.2709C13.4555 29.4216 13.3878 29.5689 13.3082 29.7145C13.0948 30.1074 12.8222 30.4494 12.492 30.7424C12.1618 31.0353 11.8367 31.2148 11.515 31.2859L11.266 30.6645Z" fill="#343029"/>
<path d="M16.244 25.0155L14.0427 26.0349L14.2831 26.6293L14.7572 25.9706L14.9706 26.7851L14.1341 27.9467L13.4534 26.316L13.0791 26.487L12.8167 25.8571L13.1994 25.6861L12.6016 24.24L11.9988 24.1147L11.567 24.7141L11.3672 23.9487L12.4171 22.4891L16.6385 23.3561L17.1194 22.6872L17.3328 23.5017L16.244 25.0155ZM13.7887 25.4253L15.2246 24.7971L13.3636 24.4025L13.7887 25.4253Z" fill="#343029"/>
<path d="M14.3288 20.9465L14.2188 20.1625L17.0686 17.04L17.641 18.4844L17.1685 19.0009L16.8485 18.1847L15.9172 19.2074L18.3708 21.4477L18.8212 20.955L18.9381 21.7881L17.7121 23.1309L14.7792 20.452L14.3288 20.9465Z" fill="#343029"/>
<path d="M21.0117 19.7019L18.3701 16.7352L17.896 17.1585L17.8672 16.3677L19.2252 15.1587L21.8414 18.0966L22.341 17.653L22.3714 18.4946L21.0117 19.7019Z" fill="#343029"/>
<path d="M23.2965 17.6699L20.9986 14.4305L20.4805 14.798L20.5397 14.0089L22.0231 12.9573L23.1932 14.6066L24.0043 14.0309L23.1864 12.8794L22.6699 13.2452L22.7292 12.4561L24.2126 11.4045L26.4884 14.6134L27.0337 14.2273L26.971 15.0672L25.486 16.1205L24.3802 14.5626L23.5691 15.1383L24.2989 16.1679L24.8425 15.7818L24.7798 16.6217L23.2965 17.6699Z" fill="#343029"/>
<path d="M31.5076 13.2486L31.3332 12.8743C30.7152 13.1233 30.1326 13.1368 29.5823 12.9184C29.0337 12.6982 28.612 12.2766 28.3208 11.6518C28.1193 11.22 28.0312 10.7966 28.06 10.3818C28.0871 9.96858 28.2209 9.59944 28.4579 9.27432C28.695 8.9492 29.0184 8.69181 29.4265 8.50047C29.9328 8.26509 30.4341 8.1872 30.9302 8.26679L30.9438 7.89764L31.6787 7.55389L31.5178 9.97197L30.8286 10.2937L30.898 8.92549C30.7236 8.88316 30.5323 8.87639 30.324 8.90517C30.1157 8.93396 29.9176 8.99323 29.7263 9.08128C29.5603 9.15917 29.4079 9.25908 29.2707 9.38269L30.6627 12.3646C30.7964 12.3511 30.9251 12.3223 31.0521 12.2783L30.7355 11.601L31.2977 11.0676L31.6956 11.9193C31.9953 11.6704 32.2239 11.3317 32.3797 10.9016L32.9741 11.1776C32.7929 11.728 32.461 12.1767 31.9767 12.5255L32.0664 12.7169L31.5076 13.2486Z" fill="#343029"/>
<path d="M34.2897 11.4791L33.1196 7.68432L32.5117 7.87228L32.8148 7.14076L37.0854 5.82166L38.2453 9.58085L38.8837 9.38442L38.562 10.1617L36.8212 10.6984L35.6495 6.90369L34.73 7.18648L35.7104 10.3615L36.3488 10.165L36.0271 10.9423L34.2897 11.4791Z" fill="#343029"/>
<path d="M39.7477 9.91272L39.0992 5.99436L38.4727 6.09765L38.8638 5.41354L42.4858 4.81241L42.4875 4.82427L42.4909 4.81072L43.1818 4.69727L42.7382 6.1857L42.0473 6.30085L42.2996 5.46265L40.7603 5.71834L40.9906 7.11196L42.3724 6.88336L42.4791 7.52343L41.099 7.75203L41.3056 8.99663L42.7839 8.7511L43.043 8.03143L43.7338 7.91629L43.2275 9.3353L39.7477 9.91272Z" fill="#343029"/>
<path d="M44.6781 9.16428L44.5647 5.19342L43.9297 5.21204L44.4174 4.5872L46.2343 4.53641L46.3461 8.46832L47.2825 8.44123L47.1877 5.11891L46.5527 5.13754L47.0403 4.5127L48.8573 4.46021L48.969 8.39212L49.7361 8.37011L48.9758 9.93982L48.2121 9.96184L48.649 9.05083L44.6781 9.16428Z" fill="#343029"/>
<path d="M50.3868 9.15244L50.7153 5.19343L50.082 5.14094L50.6357 4.57367L52.4476 4.72438L52.1225 8.64444L52.788 8.70032L52.1987 9.30314L50.3868 9.15244Z" fill="#343029"/>
<path d="M56.2043 9.94997L54.3586 8.37687L53.9183 8.84423L54.7159 8.99832L54.0656 9.53341L52.6602 9.26079L53.8573 7.96031L53.5458 7.69107L54.0081 7.18815L54.3213 7.46416L55.3847 6.31609L55.2476 5.71665L54.5228 5.5761L55.1341 5.07318L56.9003 5.41693L57.8773 9.61469L58.6867 9.77217L58.0365 10.3056L56.2043 9.94997ZM54.8056 7.88919L55.9774 8.93059L55.5574 7.0747L54.8056 7.88919Z" fill="#343029"/>
<path d="M60.8742 11.242L60.7066 8.3024L58.9438 9.92799L59.7702 10.1989L59.059 10.6477L57.6992 10.2023L60.6575 7.47097L60.6321 6.9816L59.9395 6.75469L60.6084 6.33136L62.3305 6.89524L62.6082 11.1252L63.3685 11.3741L62.6556 11.8245L60.8742 11.242Z" fill="#343029"/>
<path d="M66.8494 10.4427C67.4844 10.7492 67.9061 11.0981 68.1144 11.4892C68.3226 11.8804 68.321 12.2935 68.111 12.7287C67.8993 13.169 67.5725 13.4281 67.1322 13.5094C66.6903 13.5906 66.1518 13.4772 65.5151 13.169L63.3984 12.1496L65.1239 8.57161L64.5516 8.29559L65.2713 7.96539L66.9087 8.75449L66.2382 10.1481L66.8494 10.4427ZM65.2001 12.2986L65.8131 12.5933C65.8876 12.6288 65.9875 12.6729 66.1095 12.722L66.8528 11.1793C66.7072 11.0981 66.6124 11.0456 66.5684 11.0252L65.9554 10.7289L65.2001 12.2986Z" fill="#343029"/>
<path d="M68.0078 14.4424L70.1973 11.1285L69.6673 10.778L70.4242 10.5477L71.9414 11.5502L70.8255 13.2384L71.6552 13.7871L72.4342 12.6085L71.9059 12.2597L72.6628 12.0294L74.18 13.0318L72.0108 16.3135L72.568 16.681L71.7619 16.9265L70.243 15.9224L71.2963 14.3289L70.4665 13.7803L69.7706 14.8335L70.3277 15.201L69.5217 15.4465L68.0078 14.4424Z" fill="#343029"/>
<path d="M74.8833 14.2866L75.6656 14.1664L77.0254 15.3737L75.52 17.0671L79.12 16.7572L76.2701 19.9643L76.7697 20.408L75.9383 20.5367L74.5785 19.3293L76.0839 17.636L72.4805 17.9493L75.3591 14.7099L74.8833 14.2866Z" fill="#343029"/>
<path d="M78.3523 23.2545L78.8383 21.4105L77.6564 21.4545L78.1305 22.0048L77.2889 22.0218L76.2695 20.8381L79.0076 20.7653L79.5766 18.5911L79.116 18.056L79.9051 18.0374L81.1023 19.4276L80.6671 21.1395L81.7424 21.104L81.1412 20.4063L81.932 20.3877L83.0818 21.722L80.5096 21.7864L79.9305 24.091L80.3454 24.5736L79.5038 24.5905L78.3523 23.2545Z" fill="#343029"/>
<path d="M84.5502 24.9224L85.3309 25.041L86.2571 26.5937L83.7002 29.9889L84.0253 30.5358L82.2846 30.6357L81.8934 29.9804L82.9026 29.9194L81.0095 26.7428L80.4185 27.5048L80.0273 26.8494L81.0433 25.5337L81.3363 26.0248L84.6552 25.9181L84.9278 25.5591L84.5502 24.9224ZM81.7139 26.6564L82.7536 28.3988L84.1489 26.5768L81.7139 26.6564Z" fill="#343029"/>
<path d="M83.4648 31.0709L87.0581 29.3776L86.7872 28.8018L87.5542 28.9982L88.3298 30.6425L84.7721 32.3189L85.0566 32.9234L84.2404 32.7134L83.4648 31.0709Z" fill="#343029"/>
<path d="M88.3154 31.9429L89.057 32.2223L89.648 33.9428L87.4568 34.6946L90.8367 36.3016L86.7778 37.6952L86.9946 38.3268L86.2072 38.0305L85.6162 36.31L87.8074 35.5582L84.4258 33.9512L88.5236 32.5441L88.3154 31.9429ZM89.2619 34.4762L91.2347 35.4109L91.5005 36.1847L89.5278 35.25L89.2619 34.4762Z" fill="#343029"/>
<path d="M4.98047 51.1572L8.94456 50.9184L8.9073 50.3021L9.54569 50.7542L9.65237 52.5152L5.72553 52.7523L5.76448 53.3992L5.08546 52.9183L4.98047 51.1572Z" fill="#343029"/>
<path d="M5.2783 57.0077L7.73025 55.0603L5.92685 55.0874L6.10804 56.0018L5.36974 55.6175L5.14453 54.4795L8.54643 54.405L9.09338 53.9732L8.97485 53.3687L9.66911 53.7311L9.98068 55.2991L9.59799 55.5683L9.59968 55.5751L7.75226 57.1465L9.46591 57.6884L9.81982 57.619L9.69959 57.0145L10.3939 57.3751L10.7376 59.1057L6.8785 59.8711L7.00381 60.5061L6.26552 60.12L5.92177 58.3894L8.25687 57.9255L5.2783 57.0077Z" fill="#343029"/>
<path d="M6.85156 61.793L7.59155 61.5508L7.93191 62.5905L6.99719 62.2417L6.85156 61.793Z" fill="#343029"/>
<path d="M8.60156 66.4632L12.1288 64.6378L11.8307 64.0621L12.6097 64.2382L13.8289 66.5953C14.0795 67.0779 14.1777 67.4826 14.1235 67.8094C14.071 68.1362 13.8831 68.3818 13.5613 68.5477C13.2057 68.7323 12.8654 68.7374 12.5402 68.5629C12.5775 68.844 12.5402 69.0913 12.4268 69.3029C12.3133 69.5163 12.1339 69.6856 11.8883 69.8143C11.5141 70.0074 11.1466 70.0294 10.7877 69.8753C10.427 69.7229 10.1154 69.391 9.85293 68.8813L8.60156 66.4632ZM9.93083 67.6181L10.4371 68.5951L11.763 67.9093L11.2567 66.9323L9.93083 67.6181ZM11.7783 66.663L12.1457 67.3725L13.2498 66.8019L12.8823 66.0924L11.7783 66.663Z" fill="#343029"/>
<path d="M12.8852 73.6666L14.5125 71.2265L12.1503 71.5178L12.6397 72.2036L11.8099 72.1562L11.0039 71.025L14.9697 70.534L15.2423 70.1293L14.8325 69.5535L15.6132 69.5976L16.6325 71.0284L14.3178 74.559L14.7682 75.1906L13.9384 75.1432L12.8852 73.6666Z" fill="#343029"/>
<path d="M16.6785 78.1574L16.1417 75.8493L15.5186 75.9797L16.0587 76.5521L15.229 76.6181L14.2773 75.6072L15.9893 75.2296L15.8996 74.8367L16.5616 74.6911L16.648 75.0907L18.1635 74.7622L18.4074 74.2L17.9163 73.6785L18.6969 73.6158L19.8941 74.8858L18.2025 78.8262L18.7511 79.4087L17.9214 79.4748L16.6785 78.1574ZM16.7801 75.7071L17.095 77.2074L17.852 75.4717L16.7801 75.7071Z" fill="#343029"/>
<path d="M21.8036 77.5901L22.5656 77.4174L23.9339 78.5146L22.6893 82.5583L23.1702 82.9444L21.5937 83.6624L21.0162 83.1984L21.929 82.7784L19.1316 80.5348L18.8352 81.4492L18.2578 80.9852L18.7641 79.4087L19.1976 79.7558L22.2304 78.4655L22.3641 78.0354L21.8036 77.5901ZM19.753 80.2046L21.2889 81.4356L21.9781 79.2563L19.753 80.2046Z" fill="#343029"/>
<path d="M25.0825 80.2266L25.8174 79.9574L27.3262 80.8701L26.1544 82.809L29.5749 81.8099L27.355 85.4827L27.9087 85.818L27.1281 86.1042L25.6176 85.1915L26.7894 83.2526L23.3672 84.2534L25.6075 80.545L25.0825 80.2266Z" fill="#343029"/>
<path d="M30.2331 88.1108L30.3973 87.7332C29.8216 87.4419 29.4389 87.0203 29.2509 86.4682C29.063 85.9162 29.107 85.3236 29.383 84.6902C29.5744 84.2534 29.8301 83.9062 30.1535 83.6505C30.4769 83.3948 30.8342 83.2475 31.2254 83.2052C31.6165 83.1646 32.0128 83.2306 32.4141 83.4067C32.9102 83.6234 33.2861 83.9418 33.5435 84.3617L33.8263 84.1264L34.5477 84.4413L32.6596 85.9332L31.984 85.6385L33.0389 84.7766C32.9593 84.6191 32.8425 84.4718 32.6884 84.338C32.5343 84.2043 32.365 84.0959 32.177 84.0146C32.0145 83.9435 31.8434 83.8978 31.6656 83.8791L30.3516 86.8967C30.4447 86.9864 30.5497 87.0626 30.6632 87.127L30.9612 86.4411L31.713 86.5004L31.3371 87.3623C31.7113 87.4182 32.1076 87.3606 32.5241 87.1896L32.6986 87.8127C32.177 88.0464 31.6351 88.1006 31.0696 87.9736L30.9849 88.1666L30.2331 88.1108Z" fill="#343029"/>
<path d="M36.1939 89.6906L35.9568 86.768L34.2838 88.4613L35.0932 88.6967L34.4125 89.1742L33.0781 88.7881L35.8857 85.9416L35.8484 85.4556L35.1694 85.2592L35.8095 84.8088L37.4977 85.2982L37.8736 89.5027L38.617 89.7177L37.9363 90.1953L36.1939 89.6906Z" fill="#343029"/>
<path d="M41.945 90.876L40.0993 89.3892L39.6895 89.8769L40.4667 89.9954L39.8538 90.5576L38.4805 90.3476L39.5964 88.9964L39.2848 88.7424L39.7166 88.2191L40.0316 88.4799L41.0222 87.2861L40.8681 86.6934L40.1603 86.5851L40.736 86.0551L42.4615 86.3192L43.5554 90.4645L44.3462 90.5847L43.7332 91.1469L41.945 90.876ZM40.5159 88.8829L41.6876 89.8701L41.2152 88.0363L40.5159 88.8829Z" fill="#343029"/>
<path d="M45.0124 91.2282L45.1039 87.2573L44.457 87.2421L44.9853 86.6443L47.6388 86.7053C48.1824 86.7172 48.5837 86.8255 48.8445 87.0287C49.1052 87.2319 49.2322 87.5147 49.2238 87.8771C49.2136 88.2767 49.0561 88.5781 48.7462 88.7796C49.0104 88.8812 49.2085 89.0336 49.3423 89.2351C49.4744 89.4366 49.5387 89.6754 49.5319 89.9514C49.5218 90.3731 49.3643 90.705 49.0578 90.9471C48.7513 91.1893 48.3111 91.3044 47.737 91.2908L45.0124 91.2282ZM46.6634 90.6169L47.7641 90.6423L47.7997 89.1505L46.699 89.1251L46.6634 90.6169ZM46.7125 88.5375L47.5118 88.5561L47.5406 87.3132L46.7413 87.2946L46.7125 88.5375Z" fill="#343029"/>
<path d="M53.5674 90.9505L51.4017 89.987L51.1307 90.5627L51.913 90.4781L51.466 91.1791L50.0859 91.3298L50.8175 89.7364L50.45 89.5704L50.7328 88.9541L51.1036 89.1251L51.7556 87.7179L51.4542 87.1845L50.743 87.2624L51.1646 86.602L52.8986 86.4141L55.022 90.1394L55.8162 90.053L55.3691 90.7541L53.5674 90.9505ZM51.6726 89.3909L53.0594 90.0429L52.1315 88.3919L51.6726 89.3909Z" fill="#343029"/>
<path d="M59.1109 89.9464L57.9408 86.1516L57.3516 86.3345L57.6394 85.6063L61.783 84.3279L62.9429 88.0871L63.5627 87.8957L63.2562 88.6696L61.568 89.1894L60.3979 85.3947L59.5072 85.669L60.4859 88.844L61.1057 88.6526L60.7992 89.4265L59.1109 89.9464Z" fill="#343029"/>
<path d="M65.1002 87.9228L63.4221 84.3228L62.8633 84.5835L63.0445 83.8266L66.272 82.3212L66.277 82.3331V82.3196L66.8917 82.0334L66.8832 83.5777L66.2686 83.8639L66.277 82.9935L64.9054 83.6336L65.5032 84.9137L66.7342 84.3397L67.0086 84.9273L65.7775 85.5013L66.3109 86.646L67.6283 86.0313L67.674 85.2727L68.2887 84.9866L68.2024 86.4801L65.1002 87.9228Z" fill="#343029"/>
<path d="M72.0102 84.2347L69.6649 82.4737L69.8258 84.8494L70.5387 84.399L70.4456 85.2253L69.2721 85.967L69.0011 81.9792L68.6134 81.6846L68.0156 82.0622L68.1037 81.285L69.5887 80.3452L72.9855 82.8513L73.6409 82.4364L73.5477 83.2628L72.0102 84.2347Z" fill="#343029"/>
<path d="M74.8035 82.3027L72.2584 79.253L71.7859 79.6475L71.7656 78.8686L74.5004 76.586L74.5088 76.5961L74.5054 76.5826L75.027 76.1474L75.4148 77.6426L74.8932 78.0778L74.6782 77.2345L73.5165 78.2048L74.4225 79.2885L75.4639 78.4182L75.8804 78.916L74.839 79.7864L75.6484 80.755L76.7643 79.8236L76.6153 79.0786L77.1369 78.6434L77.4366 80.1081L74.8035 82.3027Z" fill="#343029"/>
<path d="M79.147 78.5892L76.1312 76.0035L75.7299 76.4725L75.5859 75.7037L76.734 74.3643L79.721 76.9246L80.185 76.3828L77.662 74.2204L77.3013 74.642L77.1573 73.8732L78.2648 72.5812L81.2518 75.1415L81.7141 74.6031L79.191 72.4407L78.7914 72.9064L78.6441 72.1393L79.7939 70.7982L82.7809 73.3585L83.2025 72.8674L83.3566 73.6853L79.147 78.5892Z" fill="#343029"/>
<path d="M84.4545 71.9377L81.0458 69.899L80.7291 70.4273L80.4531 69.6992L82.2819 66.6427L82.2938 66.6495L82.2853 66.6376L82.6341 66.0551L83.4927 67.3387L83.1438 67.9212L82.6629 67.1964L81.8857 68.4952L83.0981 69.22L83.7958 68.0549L84.3529 68.3885L83.6552 69.5535L84.739 70.2021L85.4857 68.9541L85.0996 68.3005L85.4485 67.718L86.2138 69.0032L84.4545 71.9377Z" fill="#343029"/>
<path d="M87.2512 67.0119L83.5817 65.4913L83.3447 66.0602L82.9688 65.3744L83.6444 63.7454L85.5121 64.521L85.8813 63.6303L84.5774 63.0901L84.342 63.6574L83.9661 62.9716L84.6418 61.3426L88.2756 62.8497L88.5246 62.2519L88.9242 62.9817L88.2469 64.6141L86.4824 63.8826L86.1133 64.7733L87.28 65.2576L87.5289 64.6598L87.9285 65.3896L87.2512 67.0119Z" fill="#343029"/>
<path d="M89.5352 61.048L85.6761 60.1048L85.5305 60.7042L85.0547 60.0828L85.4729 58.3691L87.4558 58.8534L86.4077 57.1127L86.1757 58.0609L85.6982 57.4429L86.1808 55.4667L87.4237 57.5834L89.9213 56.73L90.089 56.0442L90.5953 56.7046L90.1956 58.3386L88.1433 59.021L89.2914 59.3021L89.4303 58.7332L89.9366 59.3936L89.5352 61.048Z" fill="#343029"/>
<path d="M91.0605 52.4424L89.6906 54.3779L90.2019 54.7572L90.2714 53.9732L90.8708 54.5489L90.7472 55.9324L89.3282 54.9029L89.0945 55.2314L88.5459 54.8334L88.7863 54.5032L87.5333 53.5888L86.9524 53.7802L86.8881 54.4931L86.3242 53.9512L86.4783 52.2121L90.5474 50.8609L90.6185 50.065L91.2179 50.6407L91.0605 52.4424ZM89.1605 53.9935L90.0716 52.7608L88.2715 53.3467L89.1605 53.9935Z" fill="#343029"/>
<path d="M47.6892 48.9051C48.9457 47.7638 50.7152 47.8654 52.0546 47.928C52.8217 47.9636 56.1864 48.1211 56.5504 49.4926C56.7418 50.2106 55.9358 50.6069 55.7359 52.4729C55.6614 53.1638 55.7105 53.687 55.7359 53.9072C55.7613 54.1341 55.868 54.9553 56.3218 55.9273C56.6283 56.5809 56.8366 57.0093 57.2989 57.4259C57.5918 57.6901 57.8662 57.8391 57.8289 58.005C57.7747 58.2472 57.1075 58.2878 56.9247 58.298C56.6266 58.3166 56.139 58.3014 55.5395 58.0778C55.1501 58.2184 54.5659 58.3792 53.8462 58.403C52.969 58.4334 52.3137 58.2472 51.9564 58.1422C51.0353 57.8729 50.3782 57.4615 49.8059 57.0991C48.8763 56.5098 48.4682 56.0374 48.3717 56.122C48.2717 56.2101 48.5901 56.8434 49.0795 57.3429C49.794 58.0728 50.5865 58.2285 50.5544 58.3369C50.5188 58.4538 49.5858 58.3132 48.6646 58.044C47.8433 57.8035 47.4319 57.6833 47.0034 57.3683C46.128 56.7266 45.6488 55.7089 45.708 55.1196C45.7504 54.7098 45.8554 54.3864 45.8554 54.3864C45.9079 54.2238 45.9485 54.1493 46.0027 53.9461C46.0569 53.7412 46.0975 53.5922 46.1009 53.4093C46.106 53.091 45.9942 53.0249 45.979 52.7015C45.9705 52.5034 46.0044 52.3544 46.0518 52.1647C46.2753 51.2842 46.3854 50.8439 46.5158 50.5527C46.8443 49.8161 47.3235 49.237 47.6892 48.9051Z" fill="#343029"/>
<path d="M45.8314 49.0185C45.7315 49.0033 45.5198 49.7077 45.4081 50.3224C45.2658 51.0945 45.3945 51.1047 45.2455 51.9513C45.1337 52.5863 45.0372 52.7269 45.0169 53.2552C45.0067 53.5549 45.0304 53.6836 44.9847 54.0053C44.9322 54.366 44.8611 54.4761 44.8222 54.8198C44.7798 55.1856 44.8425 55.2279 44.8222 55.5361C44.773 56.2913 44.3548 56.7164 44.4632 56.8061C44.5411 56.8705 44.8442 56.7333 45.0169 56.481C45.2895 56.0814 44.9864 55.7529 45.0897 54.9502C45.1608 54.4033 45.3149 54.4405 45.3826 53.8259C45.4385 53.3212 45.3437 53.2061 45.4064 52.7269C45.469 52.2544 45.574 52.2663 45.7247 51.677C45.8856 51.0454 45.8906 50.5442 45.8957 49.8685C45.9008 49.4113 45.9042 49.0303 45.8314 49.0185Z" fill="#343029"/>
<path d="M58.5293 46.6326C58.5581 46.5344 58.8933 46.4937 59.1643 46.6089C59.3522 46.6885 59.3539 46.7765 59.6774 47.0728C59.994 47.3624 60.1295 47.403 60.1176 47.5131C60.1024 47.6587 59.8382 47.8078 59.6283 47.757C59.4115 47.7062 59.4183 47.4792 59.1152 47.1457C58.7968 46.7951 58.5005 46.7308 58.5293 46.6326Z" fill="#343029"/>
<path d="M55.6684 47.1711C55.7988 47.0323 56.0951 47.1288 56.3762 47.2202C56.6353 47.3049 56.9604 47.4099 57.255 47.7096C57.636 48.094 57.8037 48.6308 57.719 48.6866C57.636 48.7425 57.4277 48.2447 56.8402 48.0025C56.2915 47.7773 55.8987 47.9754 55.6921 47.6842C55.5786 47.525 55.5634 47.2812 55.6684 47.1711Z" fill="#343029"/>
<path d="M47.4337 46.2668C47.6081 45.9993 48.0602 46.211 49.1694 46.1195C49.3912 46.1009 49.7891 46.067 50.2937 45.9485C50.7492 45.8418 50.7255 45.7995 50.9541 45.7775C51.3182 45.7436 51.6501 45.852 52.2986 46.0704C52.6526 46.1889 52.6678 46.2143 53.0556 46.3397C53.4332 46.4616 53.6211 46.5225 53.8379 46.5598C54.1986 46.6224 54.2798 46.5835 54.522 46.6817C54.7032 46.7562 54.7184 46.8036 54.9623 46.9018C55.2298 47.0085 55.3737 47.017 55.3771 47.0729C55.3822 47.144 55.1434 47.2303 54.9369 47.2676C54.4424 47.359 54.0241 47.1982 53.8125 47.1203C52.9099 46.7901 52.0142 46.4599 51.1489 46.6563C50.883 46.7173 50.8864 46.7664 50.563 46.8764C49.9314 47.0915 49.0728 47.188 47.9248 46.8764C47.9011 46.973 47.8418 47.1541 47.6809 47.2913C47.388 47.5402 46.8817 47.5436 46.753 47.3404C46.7056 47.2659 46.6988 47.1491 46.753 47.0712C46.8647 46.9137 47.1441 47.0678 47.3152 46.9238C47.4964 46.7714 47.2915 46.4836 47.4337 46.2668Z" fill="#343029"/>
<path d="M45.358 48.0262C45.4342 47.8451 45.8135 47.8789 46.457 47.8789C47.6457 47.8806 48.1944 47.7689 48.2164 47.8789C48.2333 47.9602 47.9573 48.1008 47.727 48.1719C46.9718 48.4089 46.6128 47.9382 45.9913 48.1956C45.7848 48.2819 45.6188 48.4191 45.4783 48.3429C45.3767 48.287 45.314 48.1295 45.358 48.0262Z" fill="#343029"/>
<path d="M44.9172 58.1659C44.951 58.0711 45.2423 58.1777 45.8214 58.1422C46.3988 58.1066 46.5987 57.9695 46.8476 58.1185C47.0372 58.2319 47.1727 58.4605 47.1168 58.5587C47.0508 58.6739 46.7765 58.5198 46.2126 58.535C45.7808 58.5469 45.6758 58.6434 45.4066 58.5587C45.1305 58.4724 44.8833 58.259 44.9172 58.1659Z" fill="#343029"/>
<path d="M49.7562 42.8209C49.802 42.5314 50.5081 42.3942 51.0262 42.4298C51.3192 42.4501 51.6883 42.4755 51.8086 42.7227C51.9169 42.9462 51.7781 43.2629 51.5884 43.4305C51.1651 43.8081 50.3574 43.5626 49.951 43.1613C49.8528 43.0648 49.7359 42.9496 49.7562 42.8209Z" fill="#343029"/>
<path d="M38.1 47.1457C38.3371 47.0492 38.2812 46.6191 38.4657 46.5835C38.5606 46.5649 38.6706 46.6614 38.7096 46.7545C38.7875 46.9391 38.6351 47.232 38.2947 47.4386C38.3455 47.4979 38.42 47.5961 38.4895 47.7316C38.5758 47.8992 38.5741 47.9686 38.6605 48.1464C38.779 48.3903 38.8789 48.4597 38.8552 48.4885C38.7943 48.5664 38.0661 48.0652 37.8291 47.9026C37.2889 47.5318 37.1957 47.4132 37.2178 47.3167C37.2465 47.188 37.4718 47.1152 37.6089 47.0966C37.8697 47.0627 37.951 47.2067 38.1 47.1457Z" fill="#343029"/>
<path d="M39.1037 46.6089C39.1917 46.4277 39.6421 46.4294 39.9825 46.5361C40.311 46.6377 40.3093 46.7647 40.6666 46.9019C41.1086 47.0712 41.4642 47.0119 41.4726 47.0966C41.4811 47.1728 41.1932 47.183 41.0087 47.4149C40.8969 47.5538 40.885 47.6994 40.8613 48.0499C40.8055 48.9356 40.8173 49.1252 40.7394 49.1489C40.6344 49.1811 40.4126 48.8983 40.2991 48.5867C40.0926 48.0144 40.3432 47.5758 40.1518 47.4624C40.0333 47.3929 39.8081 47.4844 39.7116 47.6334C39.5896 47.8247 39.7268 48.0381 39.9317 48.6104C40.2433 49.4825 40.1146 49.5164 40.372 50.0023C40.5752 50.3867 40.6988 50.4477 40.7868 50.7847C40.8596 51.059 40.8427 51.2707 40.8105 51.6161C40.7276 52.539 40.4854 52.6897 40.5904 53.2044C40.6547 53.5245 40.7597 53.5228 40.8105 53.8885C40.8275 54.0122 40.8732 54.3762 40.7377 54.7928C40.5972 55.2195 40.4126 55.2551 40.2975 55.7207C40.2331 55.9798 40.2771 56.0272 40.1992 56.1356C40.1044 56.2694 39.9266 56.3591 39.1494 56.3794C38.8056 56.3896 38.4416 56.3828 37.8303 56.3794C37.3663 56.3777 37.2325 56.3794 37.0734 56.4776C36.7584 56.6707 36.672 57.0432 36.5603 57.0144C36.4824 56.9958 36.4671 56.7977 36.4621 56.6961C36.4316 56.0966 36.5552 55.7173 36.6331 55.1568C36.7042 54.6488 36.7364 54.3898 36.6094 54.1798C36.4502 53.9173 36.2504 53.9664 36.0726 53.6667C35.8846 53.3501 36.0455 53.1926 35.8525 52.8844C35.7051 52.6507 35.5951 52.7151 35.3157 52.4204C35.038 52.1292 34.9144 51.8227 34.8517 51.6635C34.7399 51.3807 34.6976 51.125 34.6807 50.9303C34.6502 50.8795 34.6113 50.7999 34.5926 50.6932C34.5875 50.6678 34.5825 50.6238 34.5825 50.5628C34.5842 50.3088 34.7027 50.1971 34.6553 50.1226C34.6146 50.0599 34.4639 50.0396 34.3623 50.0989C34.1134 50.2428 34.342 50.7474 34.0931 51.3198C34.0017 51.5314 33.8747 51.6838 33.7747 51.7837C33.7087 51.8955 33.6308 52.0699 33.6528 52.2731C33.685 52.5644 33.8933 52.6236 33.8967 52.8844C33.8984 53.0249 33.8391 53.0097 33.6528 53.4957C33.5546 53.7514 33.5377 53.8428 33.5309 53.9106C33.514 54.0545 33.4937 54.2509 33.6037 54.3999C33.7019 54.532 33.8086 54.4964 33.9221 54.6201C34.0254 54.7318 34.044 54.8791 34.044 55.1331C34.0457 55.6665 33.9644 55.7664 33.9712 56.0865C33.9746 56.2338 33.9813 56.625 34.215 56.9907C34.5012 57.4395 34.85 57.6511 34.85 57.6511C34.9753 57.7273 35.1074 57.7849 35.1193 57.895C35.1294 57.9949 35.0363 58.0846 34.8991 58.2133C34.7112 58.3894 34.6417 58.386 34.5571 58.4825C34.4724 58.5774 34.4639 58.6654 34.4351 59.1429C34.3928 59.8271 34.3928 59.932 34.4351 60.0963C34.4792 60.2724 34.5147 60.4079 34.6299 60.5366C34.7569 60.6771 34.9211 60.7381 35.2412 60.8549C35.5731 60.9751 35.7119 60.9853 35.7305 61.075C35.7509 61.1783 35.5714 61.2207 35.4867 61.4408C35.3987 61.6677 35.5019 61.8489 35.4376 61.8811C35.3377 61.9302 35.148 61.451 34.8263 61.4408C34.6079 61.434 34.4944 61.6508 34.3132 61.5881C34.193 61.5458 34.1371 61.4154 34.1185 61.368C34.0033 61.0954 34.215 60.926 34.1676 60.5128C34.1524 60.3842 34.1371 60.2538 34.0457 60.1471C33.8747 59.9473 33.58 59.9896 33.2888 59.9761C32.8112 59.9541 32.4421 59.7576 31.7004 59.3648C31.1653 59.082 30.8707 58.9211 30.869 58.6807C30.869 58.5401 31.0214 58.5401 31.4058 58.1185C31.5887 57.9187 31.6344 57.834 31.7478 57.8255C31.8579 57.8171 31.9781 57.9102 32.2118 58.0948C32.4336 58.2709 32.4726 58.3301 32.5047 58.3149C32.5911 58.2726 32.5572 57.7426 32.2118 57.4598C31.9172 57.2176 31.5395 57.2735 31.4295 57.2888C31.2906 57.3091 31.1247 57.3328 30.9892 57.4598C30.7471 57.6867 30.8707 57.9983 30.6963 58.0948C30.5337 58.1845 30.2001 58.0406 30.0613 57.8018C29.9156 57.5495 30.0596 57.1651 30.3542 56.4099C30.5439 55.9256 30.6387 55.6818 30.7691 55.482C31.1332 54.9266 31.3702 54.957 31.6479 54.4067C31.7631 54.1798 31.8427 53.9376 31.9663 53.9427C32.0475 53.9461 32.0882 54.0528 32.2101 54.212C32.3574 54.4016 32.5132 54.5269 32.625 54.6031C32.6859 54.554 32.9857 54.3068 33.0161 53.8953C33.0314 53.7023 32.9806 53.5465 32.9433 53.455C33.0568 53.4313 33.1719 53.4059 33.2854 53.3822C33.3125 53.2925 33.3396 53.1536 33.2854 53.0165C33.177 52.7371 32.8688 52.7845 32.6504 52.4797C32.5522 52.3408 32.6334 52.3578 32.4302 51.8193C32.3473 51.6008 32.3066 51.528 32.2829 51.379C32.2491 51.1674 32.2778 50.9862 32.3066 50.8659C32.2169 50.827 31.9239 50.6831 31.7698 50.3529C31.5565 49.8991 31.7732 49.4656 31.8189 49.3758C32.0255 48.9609 32.4031 48.8035 32.5031 48.7645C32.5589 48.6951 32.6453 48.602 32.7723 48.5207C32.945 48.4072 33.111 48.3666 33.2126 48.3497C33.2583 48.2514 33.3396 48.1092 33.4818 47.9839C33.6477 47.8366 33.7714 47.8213 33.9221 47.7401C34.3996 47.4827 34.4741 46.9273 34.5825 46.9577C34.6654 46.9814 34.6688 47.315 34.5825 47.5927C34.4758 47.9416 34.2421 48.1549 34.1185 48.2531C34.3827 48.5291 34.5926 48.7459 34.7298 48.8881C35.0058 49.1726 35.0617 49.2285 35.1209 49.3521C35.1667 49.4452 35.3343 49.8279 35.1938 50.2072C35.1006 50.4612 34.9465 50.5019 34.9499 50.7203C34.9516 50.8609 35.0177 51.0099 35.1209 51.1115C35.2649 51.252 35.3716 51.1911 35.463 51.3062C35.5951 51.4738 35.424 51.6652 35.5358 51.8684C35.6239 52.0276 35.7763 51.9954 36.0252 52.1376C36.352 52.3239 36.3384 52.5237 36.6111 52.7726C36.6365 52.7946 37.0801 53.1909 37.6135 53.1638C38.2418 53.1316 38.6498 52.5322 38.8344 52.2596C39.0308 51.9717 39.1358 51.5873 39.3475 50.8185C39.5456 50.0989 39.6438 49.7297 39.6167 49.2793C39.5846 48.7323 39.4457 48.326 39.4457 48.326C39.3492 48.0432 39.2882 48.0008 39.251 47.7638C39.1985 47.4386 39.2815 47.332 39.2019 47.0068C39.1409 46.7461 39.0613 46.6953 39.1037 46.6089Z" fill="#343029"/>
<path d="M38.9245 57.1973C38.7483 57.0787 38.2996 57.4564 38.1421 57.5884C37.7561 57.9135 37.8221 58.0168 37.5562 58.1421C37.4055 58.2133 37.2243 58.2539 37.1007 58.4351C37.0482 58.5113 37.0245 58.5875 37.0144 58.618C36.9382 58.8872 37.0753 59.0904 37.0347 59.1192C36.9974 59.1463 36.8281 59.0074 36.3184 58.4029C36.3895 58.0676 36.3624 57.9677 36.3184 57.9474C36.2473 57.9135 36.1203 58.0812 35.7647 58.469C35.2618 59.0176 35.2025 59.021 35.1128 59.2191C35.0704 59.3122 34.8401 59.8202 35.0806 60.1318C35.2787 60.3892 35.7054 60.3926 35.7647 60.3926C36.0407 60.3943 36.1423 60.2859 36.2541 60.3604C36.4386 60.4857 36.3506 60.9226 36.3184 61.0767C36.2812 61.2613 36.2287 61.373 35.9594 61.9555C35.9543 61.9657 35.7664 62.3755 35.7647 62.3789C35.4734 62.7294 35.4447 62.8361 35.4717 62.8682C35.531 62.9377 35.912 62.7175 36.1559 62.5753C36.2151 62.5414 36.4725 62.3907 36.6114 62.2823C37.0669 61.9267 36.9737 61.4391 37.2955 60.7177C37.7137 59.7813 38.1726 59.9269 38.3386 59.1531C38.4368 58.6959 38.3284 58.3945 38.5993 58.0778C38.7416 57.9102 38.9465 57.7899 38.9905 57.5241C38.9939 57.4902 39.0294 57.2684 38.9245 57.1973Z" fill="#343029"/>
<path d="M41.9369 64.0147C41.903 63.8877 41.732 63.7878 41.5949 63.8199C41.4272 63.8589 41.3798 64.0807 41.351 64.2111C41.3053 64.4211 41.3273 64.6988 41.4238 64.7242C41.4831 64.7394 41.561 64.6361 41.7168 64.4312C41.881 64.2145 41.9623 64.1044 41.9369 64.0147Z" fill="#343029"/>
<path d="M33.7782 63.1104C33.8798 63.2069 33.9645 63.234 34.3895 63.3542C35.0872 63.554 35.2548 63.5964 35.2684 63.6963C35.2904 63.8419 34.9568 63.9046 34.9263 64.1603C34.906 64.3381 35.0432 64.5125 35.1702 64.6005C35.3073 64.6937 35.4919 64.7292 35.9762 64.6242C36.5672 64.4972 36.6552 64.3668 36.9786 64.3059C37.3139 64.2432 37.6661 64.3702 38.3706 64.6242C38.4959 64.6683 38.9683 64.8901 39.9098 65.332C40.1892 65.4641 40.389 65.5589 40.6176 65.7469C40.8597 65.9467 40.8614 66.0229 41.0325 66.1127C41.4456 66.3311 41.9316 66.1431 42.0095 66.1127C42.0468 66.0974 42.5582 65.8908 42.7918 65.3557C42.8714 65.1712 42.885 65.0137 42.9138 64.6953C42.9595 64.1806 42.8833 64.0942 42.9138 63.742C42.951 63.3136 43.1356 62.6159 43.4997 62.5448C43.6741 62.511 43.8874 62.6193 43.9399 62.765C43.9941 62.914 43.8586 63.046 43.7452 63.278C43.6487 63.4762 43.6639 63.549 43.5742 64.2314C43.4793 64.951 43.4302 65.3151 43.3303 65.5014C43.1457 65.8434 42.8782 66.0551 42.7444 66.1618C42.4599 66.387 42.189 66.5004 42.0603 66.5529C41.7064 66.6986 41.6607 66.6393 41.3762 66.7731C41.1629 66.873 41.0799 66.9576 40.7158 67.237C40.2908 67.5655 40.0774 67.7298 39.9826 67.7738C39.4577 68.0261 38.7803 67.8771 38.3214 67.6028C37.6035 67.1744 37.424 66.4412 37.3935 66.3074C37.2546 66.3548 37.0616 66.4446 36.9041 66.6257C36.7009 66.8611 36.7619 67.0186 36.6349 67.1625C36.369 67.4673 35.7899 67.1219 34.6808 67.0643C34.1931 67.0389 34.3066 67.1067 33.3126 67.1134C32.6403 67.1185 32.5658 67.088 31.8715 67.0897C30.7184 67.0914 30.82 67.1761 30.4305 67.1134C30.1867 67.0745 29.2757 66.9289 28.744 66.3074C28.6593 66.2075 28.595 66.1093 28.4019 65.8925C28.0497 65.4963 27.9278 65.4472 27.816 65.2575C27.6365 64.9544 27.6789 64.6276 27.7178 64.3296C27.833 63.4389 28.4239 62.8428 28.6949 62.5702C28.976 62.2857 29.2469 62.0978 29.4281 61.9843C29.4365 61.7032 29.4806 61.3138 29.6482 60.8854C29.7295 60.6754 29.8243 60.4959 29.9174 60.3486C30.0648 60.357 30.2104 60.3655 30.3577 60.3723C30.2883 60.4942 30.2155 60.65 30.163 60.8362C30.0495 61.2342 30.0783 61.5796 30.1139 61.7896C30.2036 61.7083 30.3137 61.5881 30.4068 61.4238C30.5931 61.0936 30.6066 60.7753 30.6015 60.6178C30.9622 60.5704 31.1282 60.6534 31.2128 60.7397C31.289 60.8176 31.2755 60.8752 31.3602 60.9345C31.5481 61.0699 31.7683 60.8972 31.8969 61.0073C31.9664 61.0665 31.9427 61.1529 31.9461 61.4475C31.9494 61.771 31.9511 61.9826 32.0189 62.1554C32.0731 62.2908 32.1916 62.4652 32.4828 62.6193C32.515 62.3501 32.5472 62.0825 32.5811 61.8133C32.6911 61.7896 32.8638 61.7659 33.0704 61.7896C33.1991 61.8048 33.6208 61.8522 33.6817 62.0588C33.7207 62.1909 33.5683 62.2451 33.5344 62.4737C33.4971 62.7243 33.6343 62.9715 33.7782 63.1104Z" fill="#343029"/>
<path d="M72.4787 49.491C72.4262 49.2183 72.3754 49.2065 72.3314 48.9542C72.2789 48.6494 72.3111 48.4174 72.3314 48.2464C72.3822 47.8163 72.3703 47.3828 72.4042 46.951C72.4398 46.5073 72.4364 45.9959 72.4279 44.9715C72.4228 44.3737 72.4127 43.1528 72.306 41.8439C72.2603 41.2868 72.2467 41.385 72.2078 40.8668C72.157 40.1929 72.1773 39.9914 72.0368 39.6933C71.9538 39.5172 71.7506 39.0888 71.3764 39.0583C71.1071 39.0363 70.7972 39.226 70.716 39.4732C70.6228 39.7628 70.8955 39.9727 70.7651 40.3046C70.7532 40.3351 70.6702 40.5417 70.5449 40.5485C70.3688 40.5569 70.3451 40.1607 69.9828 39.8881C69.9201 39.8407 69.6559 39.6493 69.3224 39.6933C69.0971 39.7238 68.7653 39.8728 68.7365 40.1336C68.7263 40.2301 68.75 40.3859 68.8584 40.452C69.07 40.579 69.3359 40.1912 69.6644 40.2809C69.849 40.3317 69.9506 40.5045 70.1047 40.7703C70.2723 41.0582 70.3417 41.3274 70.3739 41.5035C70.2401 41.7253 70.0336 41.9793 69.7135 42.1148C69.3596 42.2638 69.0497 42.191 69.0294 42.2858C69.0074 42.3857 69.319 42.6143 69.6644 42.6279C70.064 42.6431 70.4416 42.3654 70.6178 42.2367C70.8379 42.0759 70.9344 41.9472 71.1308 41.9438C71.3188 41.9404 71.4204 42.0555 71.522 41.9929C71.6219 41.9302 71.6524 41.7406 71.5948 41.6017C71.5237 41.4307 71.3628 41.4493 71.3019 41.2834C71.2544 41.1547 71.2883 40.9769 71.4001 40.8922C71.522 40.7991 71.7218 40.8313 71.8403 40.9159C72.0266 41.0514 71.9707 41.2969 71.9623 42.1859C71.9555 42.8819 71.9877 43.0411 71.9385 43.5541C71.9165 43.7827 71.8878 43.9758 71.8657 44.1163C71.7845 44.0249 71.6253 43.8674 71.3764 43.7743C71.2274 43.7184 70.887 43.5897 70.594 43.7743C70.3604 43.9216 70.2943 44.1807 70.2757 44.2636C70.3502 44.3551 70.4518 44.4956 70.5449 44.6785C70.7972 45.1747 70.8091 45.6336 70.8142 45.9976C70.8176 46.2736 70.7956 46.675 70.6669 47.1457C70.5974 47.2134 70.4907 47.3353 70.423 47.5115C70.3671 47.6554 70.2909 47.9534 70.3993 48.0245C70.5043 48.094 70.738 47.9212 70.8633 47.8298C71.1325 47.6317 71.1342 47.5115 71.3036 47.464C71.4898 47.4115 71.7235 47.4911 71.8657 47.6588C72.0198 47.84 72.0486 48.1007 71.9385 48.3192C71.4458 48.3056 71.0716 48.4055 70.8396 48.4902C70.5653 48.5901 70.3841 48.6561 70.2537 48.8323C70.042 49.1184 70.1758 49.4097 70.1555 49.8821C70.1453 50.126 69.9861 50.5171 69.6661 51.2994C69.2038 52.434 69.0142 52.671 68.8838 52.815C68.6416 53.0808 68.3944 53.2518 68.2234 53.3518C68.3995 52.4374 68.3809 51.9717 68.3216 51.7143C68.3114 51.6669 68.2708 51.5026 68.2488 51.274C68.2234 51.0065 68.2386 50.7999 68.2488 50.6627C68.281 50.2428 68.2979 50.0328 68.347 49.6603C68.3538 49.6027 68.4503 48.856 68.4452 48.0957C68.4401 47.4132 68.3589 47.442 68.3233 46.5801C68.2945 45.8926 68.3419 45.7758 68.3233 45.1137C68.3013 44.3314 68.2285 44.3195 68.176 43.5016C68.176 43.5016 68.0879 42.1351 68.2488 40.5688C68.2742 40.325 68.2843 40.0777 68.3216 39.8356C68.4046 39.3039 68.4943 39.1464 68.3944 39.0296C68.3114 38.933 68.1624 38.9381 67.4902 39.0296C67.1583 39.0753 66.8755 39.1176 66.6587 39.1515C66.5267 38.9297 66.337 38.6249 66.0966 38.2726C65.6529 37.6241 64.4947 36.0256 62.505 34.4372C61.1639 33.3671 59.9565 32.4036 58.082 31.8227C56.7341 31.4045 55.5945 31.3808 53.317 31.3334C51.7371 31.3012 50.6026 31.3859 49.358 31.4807C47.6647 31.6094 44.8199 31.8363 43.494 32.5797C43.0368 32.837 42.5559 33.0504 42.1021 33.3129C41.6347 33.5821 41.4925 33.6905 41.1978 33.7277C40.8117 33.7768 40.6204 33.6482 40.148 33.7277C39.9634 33.7582 39.8008 33.8107 39.5367 33.9225C38.5071 34.3661 37.8027 34.8995 37.801 34.8995C37.801 34.8995 36.4176 35.9477 35.3575 37.9289C35.2068 38.21 34.9698 38.6977 35.1628 39.0279C35.2458 39.1684 35.3507 39.187 35.5048 39.419C35.7267 39.7509 35.6928 39.9846 35.7978 40.0049C36.0078 40.0456 36.2482 39.1413 36.4582 39.1735C36.5903 39.1938 36.6749 39.5782 36.6529 39.9304C36.6191 40.474 36.3549 40.5891 36.0907 41.3223C35.9333 41.7592 35.7588 42.2672 35.9925 42.6668C36.0179 42.7092 36.0433 42.7447 36.3583 43.0089C37.2676 43.7692 37.4437 43.8014 37.5792 43.7912C37.8145 43.7726 37.8552 43.6303 38.0685 43.6693C38.3395 43.7184 38.3767 43.9707 38.6053 43.9876C38.8746 44.008 39.0287 43.6794 39.1675 43.7438C39.2928 43.8014 39.1743 44.0723 39.3385 44.2806C39.5147 44.5041 39.9431 44.56 40.0955 44.4025C40.2055 44.2907 40.0955 44.1485 40.1446 43.6947C40.1751 43.4051 40.1903 43.2612 40.2919 43.1325C40.4697 42.9056 40.6847 43.019 41.1233 42.7904C41.4467 42.6211 41.4095 42.5178 41.7092 42.3756C42.0496 42.2147 42.522 42.147 42.6134 42.3028C42.6761 42.4095 42.5102 42.5432 42.2223 43.0597C41.9598 43.5338 41.865 43.8437 41.8311 43.9639C41.7346 44.3094 41.6364 44.6599 41.8074 44.8428C41.9243 44.9698 42.0479 44.8851 42.3933 44.9901C42.6812 45.0764 42.8658 45.217 43.1756 45.4541C43.5278 45.7233 43.7785 45.9146 43.7378 46.0162C43.6972 46.1145 43.4195 46.0349 42.3205 45.918C41.8599 45.8689 41.6432 45.8554 41.2706 45.7792C40.9862 45.7216 40.766 45.6606 40.5865 45.6082C38.5562 45.0138 37.1948 44.3195 37.1948 44.3195C36.9188 44.179 36.5361 43.9741 36.0907 43.7015C35.6251 43.8742 35.471 43.8606 35.4303 43.7997C35.3795 43.7235 35.5269 43.6134 35.5286 43.3848C35.5302 43.185 35.4202 43.0309 35.2847 42.848C35.1018 42.6008 34.9596 42.5009 34.8444 42.384C34.6074 42.1402 34.6311 41.9641 34.3805 41.0886C34.1976 40.4503 34.1028 40.1268 33.9402 39.8915C33.6828 39.5172 33.3357 39.3039 33.0851 39.1837C33.3086 38.8365 33.3916 38.5199 33.4271 38.3285C33.4864 38.0034 33.5338 37.746 33.4034 37.4971C33.3035 37.3074 33.1985 37.3108 32.914 36.9349C32.7142 36.6691 32.7024 36.5844 32.7193 36.52C32.7549 36.3829 32.9073 36.3846 33.1105 36.2271C33.4407 35.9714 33.4847 35.6209 33.5744 35.6412C33.6693 35.6632 33.5457 36.0239 33.7455 36.2525C33.8826 36.41 34.1282 36.4151 34.6175 36.4235C35.2153 36.4354 35.3406 36.3202 35.3829 36.2762C35.4693 36.1865 35.5523 36.029 35.5048 35.885C35.4456 35.7039 35.1916 35.5769 34.8936 35.6412C34.9342 35.4058 34.9748 35.1688 35.0155 34.9334C35.1391 34.9334 35.3626 34.9317 35.6505 34.9334C35.8909 34.9351 35.9705 34.9368 36.0416 34.8843C36.2448 34.737 36.1686 34.3153 36.1398 34.1765C36.4311 34.146 36.8714 34.1054 37.4098 34.0783C37.9263 34.0529 37.9314 34.0698 38.1177 34.0546C38.8289 33.9919 39.2268 33.6956 40.1463 33.2231C40.7491 32.9132 41.2131 32.7134 41.5636 32.5627C43.3941 31.7753 44.1544 31.4875 44.1544 31.4875C44.5201 31.3486 45.0078 31.1691 45.2042 30.7305C45.2229 30.6882 45.377 30.3462 45.2279 30.1684C45.1636 30.0905 45.062 30.0752 44.8622 30.0464C44.7064 30.0244 44.51 29.9956 44.2763 30.0464C43.9884 30.1074 44.0088 30.209 43.6413 30.3648C43.2112 30.546 42.9978 30.4867 42.8844 30.6831C42.8031 30.8237 42.8505 30.9608 42.7625 31.0015C42.6626 31.0455 42.5677 30.888 42.3967 30.8542C42.1833 30.8135 41.9971 30.993 41.7617 31.1962C41.2215 31.6585 41.3113 31.4655 40.7847 31.9294C40.2496 32.4002 40.3004 32.4747 39.9295 32.7355C39.5621 32.9945 39.2268 33.1232 39.0253 33.1994C38.6612 33.3366 38.3903 33.3857 37.9263 33.4687C37.0085 33.6329 37.1135 33.4788 36.68 33.616C36.5649 33.6532 36.3651 33.7244 36.1669 33.6397C36.0315 33.5821 35.9468 33.4754 35.8977 33.3958C35.8808 33.4382 35.8046 33.616 35.6047 33.7142C35.3846 33.8226 35.178 33.7514 35.1408 33.7379C35.2204 33.6126 35.3491 33.3755 35.3846 33.0538C35.3965 32.9488 35.4117 32.7185 35.3355 32.4425C35.2813 32.2495 35.2034 32.1005 35.1408 32.0022C35.4896 31.9125 35.6606 31.755 35.7521 31.6365C36.0349 31.2639 35.8435 30.8592 36.1432 30.634C36.2838 30.529 36.343 30.6035 36.68 30.4393C36.8866 30.3377 37.0932 30.2361 37.0949 30.0972C37.0966 29.955 36.8832 29.8297 36.7291 29.7789C36.4074 29.6756 36.1077 29.8246 35.8503 29.9499C35.3237 30.2073 35.0273 30.5866 34.9223 30.7322C34.7191 31.0133 34.6125 31.2826 34.5566 31.4655C34.4584 31.3926 34.3618 31.3181 34.2636 31.2453C34.2721 30.9676 34.2806 30.6916 34.2873 30.4139C34.2382 29.8686 34.0875 29.4538 33.969 29.193C33.8149 28.8493 33.7065 28.6088 33.4474 28.4107C33.2053 28.2244 33.0512 28.2447 32.7955 28.0449C32.5466 27.8502 32.4077 27.608 32.3315 27.4336C32.1114 27.5725 31.9251 27.6656 31.7948 27.7266C31.5763 27.8282 31.4205 27.879 31.3054 28.0449C31.2478 28.1279 31.2207 28.2092 31.2072 28.2651C31.3105 28.4276 31.4798 28.6478 31.744 28.8272C32.2164 29.1473 32.5466 29.0389 32.8429 29.3894C33.0546 29.64 33.0986 29.9465 33.1122 30.0498C33.1257 30.1497 33.1562 30.3868 33.0631 30.6357C32.914 31.0353 32.5957 31.0709 32.257 31.4671C32.125 31.6229 31.9522 31.8752 31.8422 32.2732C31.8168 32.2766 31.4459 32.346 31.3054 32.688C31.2241 32.8828 31.4002 33.0673 31.3054 33.2011C31.2309 33.3061 31.0582 33.3129 30.9142 33.2993C30.8634 33.3704 30.7737 33.4653 30.645 33.4941C30.3503 33.5601 30.0709 33.2282 29.9846 33.1283C29.8169 32.9302 29.8661 32.876 29.6662 32.5661C29.4275 32.1953 29.3225 32.2207 29.2514 32.0039C29.1176 31.5958 29.3851 31.1911 29.3987 31.1725C29.5528 30.9473 29.6798 30.9693 30.0337 30.7085C30.3724 30.4579 30.5756 30.2005 30.7906 29.9262C31.0345 29.6163 31.2156 29.3149 31.3528 29.0474C31.2224 28.9661 31.092 28.8848 30.9616 28.8035C30.7906 29.193 30.584 29.447 30.4249 29.6096C30.2775 29.7586 30.2674 29.7281 29.7899 30.1226C29.3868 30.4545 29.1836 30.6222 29.1057 30.7576C28.9771 30.9795 28.9567 31.1623 28.7874 31.2216C28.6739 31.2623 28.5469 31.2267 28.4691 31.1725C28.2811 31.0438 28.2235 30.7119 28.3708 30.3665C28.6604 30.3682 28.806 30.2784 28.8839 30.1955C29.1142 29.9516 28.9042 29.6163 29.1532 29.3166C29.2395 29.2133 29.248 29.2726 29.6425 28.9983C29.8017 28.8882 29.9406 28.7917 30.0828 28.6562C30.2979 28.4513 30.2894 28.3785 30.474 28.1668C30.7398 27.8637 31.0328 27.7046 31.3054 27.5555C31.4544 27.4743 31.6593 27.3744 31.9167 27.2863C31.7558 27.1119 31.5763 26.9307 31.3799 26.7495C31.0158 26.4159 30.6585 26.1416 30.33 25.9181C30.0777 25.659 29.8423 25.4761 29.6696 25.3559C29.1278 24.9749 28.889 24.9834 28.8145 24.9902C28.6519 25.0037 28.5249 25.0664 28.4487 25.1121C28.254 25.2916 28.0576 25.4711 27.8628 25.6489C27.6833 25.6726 27.4107 25.6946 27.0805 25.6726C26.6741 25.6455 26.3964 25.5642 26.1526 25.5015C25.4211 25.3119 24.8504 25.1629 24.2222 25.1832C23.831 25.1967 23.3518 25.212 22.8777 25.5252C22.2562 25.9367 22.0581 26.5853 21.9988 26.7952C21.7753 27.5708 22.009 28.221 22.0971 28.4327C21.9582 28.5478 21.7889 28.7121 21.6246 28.9288C21.4502 29.1608 21.3384 29.3827 21.2656 29.5554C21.4265 29.8026 21.545 29.8483 21.6246 29.8399C21.7516 29.828 21.7939 29.6841 22.0479 29.3589C22.3527 28.9695 22.4848 28.9305 22.5373 28.9187C22.666 28.8899 22.8404 28.9085 22.9522 29.0169C23.1622 29.2218 23.0148 29.6197 22.9759 29.7247C22.9352 29.8365 22.8811 29.9838 22.7321 30.0905C22.4679 30.2801 22.1411 30.1785 22.0971 30.1633C22.092 30.1853 22.009 30.5019 22.219 30.7255C22.4357 30.9575 22.7676 30.8813 22.8049 30.8728C23.1638 30.7847 23.3315 30.3936 23.4399 30.1396C23.5381 29.9127 23.5719 29.7095 23.5872 29.5774C23.7379 29.6113 23.9292 29.6367 24.1494 29.6265C24.6506 29.6028 25.0265 29.4081 25.2246 29.2844C25.4295 29.403 25.7479 29.5452 26.1526 29.5774C26.2762 29.5875 26.3913 29.5859 26.4946 29.5774C26.5217 29.657 26.5912 29.828 26.7639 29.9685C27.0043 30.1667 27.2769 30.1667 27.3498 30.1633C27.3362 30.3597 27.3413 30.6476 27.448 30.9693C27.6681 31.6399 28.1693 32.0005 28.3522 32.1174C28.0914 32.329 27.8307 32.5407 27.5699 32.7524C27.4683 32.749 27.2956 32.7321 27.1059 32.6542C26.6267 32.4594 26.6182 32.1208 26.1526 31.9464C25.8867 31.8448 25.7648 31.9091 25.5667 31.7516C25.399 31.6179 25.438 31.5349 25.2737 31.3605C25.0333 31.1065 24.8775 31.203 24.5168 30.9456C24.1883 30.7119 24.1917 30.5409 24.0037 30.5307C23.8598 30.5223 23.8361 30.6205 23.3924 30.9219C23.0961 31.1234 23.0081 31.1454 22.9285 31.2877C22.9132 31.3147 22.8049 31.5146 22.8557 31.7516C22.9014 31.965 23.047 32.0767 23.3196 32.3138C23.5279 32.495 23.7193 32.6965 23.9309 32.876C24.2052 33.108 24.5304 33.4466 25.1772 34.1223C25.6412 34.6066 25.8038 34.7962 26.1543 34.9537C26.3287 35.0316 26.5776 35.1383 26.8621 35.0756C27.1466 35.013 27.2058 34.8403 27.5699 34.5388C28.1287 34.0766 28.2896 34.2374 28.718 33.831C29.1159 33.4517 29.1599 33.1368 29.3784 33.1469C29.59 33.1571 29.7645 33.4687 29.8186 33.7091C29.9033 34.0867 29.7187 34.4085 29.4766 34.8335C29.3496 35.057 29.1345 35.4228 28.7197 35.7868C28.2015 36.239 28.0508 36.0933 27.6207 36.4709C26.9535 37.0568 26.8181 37.8476 26.7893 38.0356C26.7368 38.3963 26.6792 38.7976 26.9112 39.1108C27.2448 39.5613 27.956 39.5274 28.4995 39.502C28.9347 39.4817 29.7086 39.3784 30.601 38.867C31.1225 39.165 31.5746 39.3428 31.8964 39.4529C32.55 39.6764 32.8362 39.6696 33.1172 39.966C33.3188 40.1776 33.3899 40.4486 33.5321 40.9921C33.6981 41.6254 33.759 42.2469 33.776 42.4332C33.8251 42.9852 33.7912 43.124 33.9233 43.3611C34.035 43.5626 34.2111 43.7404 34.6311 43.9724C35.3965 44.394 36.0721 44.5092 36.0721 44.5092C37.7773 44.8072 38.2768 45.5997 40.8253 46.1839C41.4332 46.3227 42.7455 46.5852 43.223 46.57C43.2806 46.5683 43.538 46.5547 43.875 46.6191C43.9427 46.6326 44.0189 46.6496 44.2001 46.7003C44.9401 46.9103 45.04 47.0153 45.2432 46.9611C45.4142 46.9154 45.3804 46.8324 45.6835 46.6021C46.1339 46.2618 46.5301 46.2059 46.5149 46.1297C46.503 46.0738 46.2931 46.1161 45.9121 46.0484C45.5835 45.9892 45.5649 45.9265 45.2601 45.8689C44.8368 45.7893 44.7945 45.8977 44.4947 45.8198C44.2594 45.7589 44.2661 45.6877 43.7615 45.3795C43.4313 45.178 43.3992 45.1916 42.9149 44.9071C42.561 44.7005 42.2562 44.5193 42.2799 44.4668C42.2934 44.4364 42.4035 44.4702 42.605 44.499C43.069 44.5668 43.4821 44.5329 43.4838 44.499C43.4855 44.477 43.3213 44.4906 43.1248 44.3856C42.9995 44.3178 42.9572 44.2552 42.6693 43.9131C42.4035 43.5999 42.3815 43.5846 42.3764 43.522C42.3628 43.3662 42.4848 43.3052 42.7675 42.9191C42.9182 42.7126 43.0182 42.5771 43.1096 42.3824C43.284 42.0098 43.2027 41.9133 43.3534 41.7626C43.4652 41.6525 43.5211 41.6949 43.9732 41.5188C44.3135 41.385 44.3169 41.346 44.4287 41.3393C44.742 41.3189 44.8927 41.6017 45.1788 41.7795C45.636 42.064 45.8883 41.7338 46.906 41.7965C47.4174 41.8269 48.0389 41.8659 48.5994 42.2689C48.8855 42.4738 49.0921 42.7295 49.17 42.6753C49.2428 42.6245 49.1666 42.3214 49.0227 42.0894C48.8601 41.8269 48.6705 41.7558 48.6976 41.617C48.7094 41.5577 48.7552 41.512 48.811 41.4781C48.9194 41.49 49.0176 41.5001 49.1226 41.512C49.2293 41.5458 49.3495 41.5814 49.4951 41.617C49.91 41.7203 50.1166 41.7609 50.3909 41.7795C51.0039 41.8219 51.1546 41.683 51.6118 41.8117C51.8065 41.8676 51.7896 41.8947 52.0182 41.959C52.3112 42.0403 52.5262 42.0454 52.914 42.0572C53.5913 42.0759 53.9317 42.086 54.0214 42.1063C54.4769 42.2046 54.4346 42.3231 54.8528 42.384C55.288 42.4467 55.5623 42.3519 55.6673 42.5144C55.7401 42.6279 55.6402 42.7244 55.7164 42.9547C55.7706 43.1223 55.8976 43.2984 55.9772 43.2798C56.0873 43.2544 55.9721 42.8802 56.2058 42.6601C56.3159 42.5568 56.409 42.5771 56.4988 42.4484C56.5597 42.3637 56.619 42.213 56.58 42.1063C56.5699 42.0776 56.5445 42.0572 56.5208 42.0386C56.5462 42.0386 56.5716 42.0403 56.597 42.042C56.7528 42.0522 56.8815 42.0725 56.9746 42.0894C56.8628 42.2249 56.9204 42.5669 56.7443 43.0919C56.6258 43.4458 56.5072 43.5626 56.5733 43.654C56.6783 43.7997 57.0525 43.6016 57.5266 43.5812C58.0312 43.5592 58.4021 43.7523 58.8711 43.9961C59.7754 44.4668 60.3037 45.1272 60.6796 45.6082C61.3586 46.4751 61.6787 47.2744 61.8768 47.7824C61.9784 48.0432 62.2476 48.7645 62.4136 49.7365C62.5575 50.5798 62.6489 51.1098 62.5609 51.8142C62.5118 52.2003 62.4407 52.3967 62.5118 52.7422C62.6151 53.2349 62.8589 53.3077 62.9266 53.8411C62.9639 54.1273 62.8928 54.1087 62.9266 54.6234C62.9503 54.9926 62.9978 55.167 62.9029 55.2347C62.8149 55.2957 62.6659 55.2229 62.3899 55.0874C62.0461 54.9198 62.0495 54.852 61.8277 54.7691C61.511 54.6522 61.3112 54.764 61.2164 54.6218C61.169 54.5506 61.1588 54.4338 61.2079 54.3525C61.3417 54.1358 61.7904 54.3644 62.0224 54.1239C62.1545 53.9868 62.1511 53.7615 62.1206 53.6345C62.08 53.4703 61.9902 53.4466 61.7786 53.179C61.5195 52.8505 61.6075 52.8031 61.4128 52.6338C61.1808 52.434 61.047 52.4289 60.9234 52.2274C60.8709 52.1427 60.7964 52.0191 60.8252 51.8853C60.8777 51.6483 61.2045 51.6533 61.2655 51.4451C61.3129 51.2791 61.1351 51.1741 60.8997 50.7847C60.6847 50.4325 60.4899 50.109 60.5814 49.8313C60.6779 49.5418 61.003 49.5536 61.0454 49.2691C61.0758 49.0659 60.9167 49.0134 60.9234 48.7323C60.9285 48.5054 61.0318 48.475 61.0708 48.2193C61.1046 47.9941 61.0843 47.6249 60.9234 47.5589C60.7744 47.4979 60.6339 47.7553 60.1174 48.0482C59.8228 48.2142 59.6771 48.2972 59.5315 48.2921C59.1674 48.2785 59.1658 47.9077 58.4071 47.2168C58.2175 47.0441 58.0414 46.9052 57.9923 46.6546C57.9466 46.4226 58.0363 46.2262 58.0651 46.1653C58.2327 45.8114 58.5968 45.6877 58.7001 45.6522C59.0625 45.5286 59.2741 45.642 59.3114 45.554C59.3757 45.4033 58.8339 44.858 58.187 44.8462C57.8687 44.8411 57.6265 44.9647 57.4792 45.0409C57.0508 45.261 57.044 45.4744 56.5259 45.8723C56.0788 46.2144 55.9078 46.1907 55.8909 46.3363C55.857 46.6292 56.5479 46.8324 57.7721 47.5826C58.8728 48.2565 59.1234 48.5884 59.2623 48.9017C59.391 49.1895 59.5264 49.4927 59.4824 49.8787C59.4401 50.2428 59.2606 50.49 59.3842 50.8321C59.4265 50.9472 59.5146 51.1064 59.6043 51.1013C59.755 51.0912 59.7703 50.6255 59.9227 50.6119C60.0243 50.6035 60.1665 50.805 60.1665 51.0031C60.1665 51.1961 60.0344 51.3401 59.8008 51.589C59.5078 51.9006 59.3334 51.9852 59.3605 52.1021C59.3842 52.2037 59.5451 52.2765 59.6788 52.2646C59.9007 52.246 59.9718 52.0005 60.07 52.0293C60.1953 52.0648 60.2698 52.5186 60.07 52.7371C59.965 52.8522 59.8634 52.815 59.7516 52.9487C59.6314 53.0927 59.5874 53.3348 59.6788 53.4212C59.8058 53.5431 60.1225 53.284 60.241 53.3975C60.3358 53.4872 60.2427 53.7734 60.1191 53.9597C59.9752 54.1747 59.8431 54.173 59.7042 54.4236C59.6382 54.5422 59.5806 54.6455 59.606 54.7657C59.65 54.9621 59.877 54.996 59.8753 55.1314C59.8736 55.2517 59.6958 55.2635 59.5823 55.4244C59.4536 55.6073 59.5112 55.8579 59.6314 56.3523C59.7279 56.7486 59.7754 56.9467 59.9007 57.0601C60.1648 57.304 60.5018 57.199 60.5611 57.3785C60.6051 57.514 60.4561 57.7087 60.2918 57.7934C60.0141 57.9356 59.6805 57.768 59.4367 57.646C59.159 57.5072 58.9592 57.3345 58.7035 57.1093C58.314 56.7655 58.2107 56.5996 58.1176 56.6368C57.9991 56.6842 57.9567 57.0331 58.0939 57.2803C58.2514 57.5648 58.5392 57.5106 58.6561 57.7934C58.7543 58.0355 58.6527 58.281 58.6324 58.3301C58.5866 58.4385 58.4647 58.6603 58.0465 58.8432C57.53 59.0701 57.1354 58.9872 56.3599 58.9651C55.8384 58.9516 55.3168 58.999 54.797 59.0143C53.2747 59.0549 53.4423 59.0464 52.9394 59.0634C51.7659 59.1023 51.7303 59.1243 51.2782 59.1125C51.0733 59.1074 50.9175 59.0972 50.7905 59.0854C50.479 59.0583 50.2419 59.0329 50.2182 59.0312C49.9439 58.999 49.275 59.0007 47.05 59.3732C46.9128 59.3953 46.3422 59.4918 45.7055 59.3817C45.548 59.3546 45.062 59.2632 44.532 58.9414C44.2221 58.7535 43.9884 58.6112 43.8242 58.3301C43.6481 58.0304 43.6481 57.7392 43.6532 57.3768C43.6701 56.1847 43.726 55.3736 43.726 55.3736C43.831 53.8327 43.7734 53.9461 43.8479 53.6142C43.9783 53.0402 44.1357 52.7777 44.068 52.2697C44.0223 51.9277 43.919 51.8227 43.9461 51.4874C43.9766 51.0945 44.1324 51.0522 44.1899 50.6086C44.2458 50.192 44.1171 50.1615 44.1899 49.7771C44.2678 49.3589 44.4338 49.3165 44.4101 49.0439C44.3779 48.6799 44.0528 48.4394 43.9461 48.3598C43.5092 48.0347 43.0182 48.1041 42.9436 48.116C42.8404 48.1329 42.3815 48.204 42.1376 48.5715C42.036 48.7239 42.0292 48.8407 41.9903 49.5248C41.9378 50.4375 41.9327 50.5256 41.9175 50.6492C41.8514 51.1826 41.7414 51.3672 41.6482 51.7736C41.5534 52.1884 41.567 52.4255 41.6245 53.6058C41.6245 53.6058 41.7126 55.4481 41.7228 57.3192C41.7244 57.5902 41.7211 57.729 41.699 57.9051C41.6364 58.3996 41.5111 58.5418 41.5043 58.955C41.4975 59.2835 41.5704 59.59 41.6262 59.59C41.6838 59.59 41.716 59.2699 41.9192 58.6857C42.0208 58.3911 42.0902 58.2489 42.2121 58.2218C42.3205 58.1981 42.4238 58.2776 42.5051 58.3437C42.9995 58.7433 43.2383 59.0278 43.2383 59.0278C43.7852 59.6797 43.8479 59.7559 43.9952 59.7847C44.3271 59.8491 44.5692 59.5663 44.6302 59.6374C44.7166 59.739 44.3051 60.3757 43.9698 60.3215C43.9055 60.3113 43.8445 60.2656 43.726 60.1742C43.5583 60.0455 43.4364 59.9202 43.3602 59.8321C43.3517 59.9202 43.3484 60.0286 43.3602 60.1505C43.3771 60.3198 43.4178 60.4621 43.4584 60.5653C42.986 60.3842 42.6609 60.4705 42.5305 60.5162C42.3662 60.5738 42.2477 60.6619 42.1156 60.7601C41.7194 61.053 41.6957 61.2444 41.4552 61.346C41.3164 61.4052 41.0945 61.4391 40.7474 61.2969C40.7609 61.1648 40.7965 60.9887 40.8947 60.8075C41.125 60.3842 41.5297 60.247 41.506 60.1962C41.4806 60.1454 41.0386 60.2402 40.6509 60.5382C40.4528 60.6907 40.319 60.8549 40.236 60.9785C39.9109 60.9277 39.2793 60.882 38.6714 61.2224C38.4411 61.351 37.989 61.605 37.9636 62.0047C37.9449 62.3044 38.1752 62.5347 38.4529 62.8107C38.646 63.0037 38.9423 63.2916 39.43 63.3966C39.7907 63.4745 40.0955 63.4169 40.2614 63.3729C40.5171 63.0291 40.7305 62.6109 40.6035 62.2485C40.5036 61.9657 40.2326 61.8235 40.2614 61.7845C40.2987 61.7337 40.8388 61.8963 40.9692 62.2739C41.0522 62.5144 40.893 62.6194 40.7491 63.2764C40.6187 63.8758 40.6847 64.101 40.7254 64.2043C40.8287 64.4735 41.0437 64.6768 41.1165 64.6446C41.1877 64.6124 41.0708 64.3703 41.1656 64.0096C41.2029 63.864 41.2486 63.6912 41.3858 63.6184C41.5771 63.5168 41.738 63.7251 41.948 63.6675C42.1749 63.6049 42.207 63.3035 42.4119 62.8124C42.5406 62.5025 42.7421 62.0199 43.096 61.688C43.3941 61.4086 43.7073 61.3223 44.1459 61.1987C44.9706 60.97 45.6665 61.0344 46.0763 61.0767C46.7299 61.1445 47.3243 61.307 47.6392 61.3951C48.2895 61.5763 48.7128 61.7541 48.7636 61.6643C48.8297 61.5458 48.1235 61.2173 47.8357 60.4434C47.7358 60.1759 47.7138 59.932 47.7138 59.7593C48.049 59.7102 48.5384 59.6442 49.1311 59.5883C49.8253 59.5223 50.4807 59.4884 51.9166 59.4664C54.3533 59.4291 55.5708 59.4122 55.8265 59.4427C55.9992 59.463 56.7087 59.551 57.5859 59.3936C58.3157 59.2615 58.629 59.0566 58.8322 58.8568C59.1166 58.5757 59.2403 58.2523 59.2961 58.0507C59.5214 58.1998 59.838 58.3555 60.2241 58.3691C60.8438 58.3894 61.2773 58.0304 61.3976 58.1744C61.4856 58.281 61.3298 58.5757 61.1774 58.7603C60.9167 59.0769 60.644 59.0972 60.0531 59.3953C59.7025 59.5714 59.4841 59.6814 59.247 59.8846C58.7746 60.2859 58.5646 60.7652 58.441 61.0581C58.1836 61.6643 58.1125 62.2621 58.1718 62.279C58.2209 62.2942 58.2988 61.8946 58.6611 61.4476C59.0201 61.0056 59.4231 60.8075 59.5163 60.7635C59.8905 60.5874 60.2156 60.5569 60.3714 60.5433C60.7439 60.5112 61.0521 60.5653 61.2502 60.6161C61.3417 60.7533 61.5398 61.009 61.8852 61.1783C61.9919 61.2308 62.422 61.4408 62.8877 61.3003C63.0604 61.2478 63.2027 61.1597 63.5481 60.8109C64.1306 60.225 64.454 59.8982 64.7216 59.3207C64.8316 59.082 64.9688 58.7196 65.0399 58.2455C65.509 58.3115 65.9628 58.1337 66.2134 57.7815C66.4318 57.4733 66.4183 57.138 66.4081 57.0246C66.5267 56.879 66.6875 56.6995 66.8975 56.5115C67.0888 56.3388 67.2565 56.1881 67.5088 56.0475C67.883 55.8376 68.032 55.8833 68.2657 55.6818C68.4401 55.5328 68.5333 55.3584 68.5841 55.2415C68.6721 55.2263 68.7991 55.2059 68.9498 55.1924C69.2563 55.1653 69.6746 55.1264 70.147 55.2652C70.3062 55.3126 70.5331 55.3973 70.782 55.5582C70.7244 55.3854 70.633 55.189 70.4891 54.996C70.2384 54.659 69.9421 54.4897 69.7558 54.3847C69.5323 54.2594 69.3274 54.1849 69.17 54.1408V54.7758C69.0836 54.5964 68.9413 54.3728 68.706 54.1899C68.4791 54.0121 68.2827 53.963 68.2911 53.8716C68.3013 53.748 68.6738 53.6853 68.877 53.6515C69.3478 53.5753 69.5764 53.6176 69.9269 53.6024C70.5551 53.5753 71.1562 53.3772 71.1478 53.284C71.141 53.1977 70.6059 53.1587 70.2435 53.1621C69.5526 53.1672 69.2241 53.323 69.1446 53.1858C69.0717 53.0639 69.2394 52.7726 69.4629 52.649C69.6746 52.5322 69.805 52.6372 69.9997 52.5017C70.1741 52.3815 70.1131 52.2663 70.2926 52.1105C70.3316 52.0767 70.4112 52.0157 70.9276 51.8904C71.1681 51.8328 71.3984 51.7854 71.4898 51.7685C72.0097 51.6652 72.1062 51.6635 72.1248 51.5975C72.1671 51.4535 71.7794 51.2012 71.5626 51.0844C71.1037 50.8355 70.7837 50.8541 70.7566 50.6932C70.7448 50.6187 70.8464 50.5053 71.0496 50.2784C71.2629 50.0413 71.351 49.9871 71.3425 49.8872C71.334 49.7873 71.2392 49.7704 71.0733 49.5943C70.9564 49.4706 70.7481 49.2488 70.804 49.1049C70.8582 48.966 71.163 48.8932 71.3171 49.0067C71.5101 49.1489 71.3882 49.5265 71.5118 49.5689C71.6473 49.6146 71.8454 49.1845 71.9758 49.2268C72.0351 49.2454 72.0689 49.3572 72.074 50.0091C72.0774 50.5425 72.0554 50.7186 72.1231 50.7423C72.2061 50.7711 72.3788 50.5442 72.4652 50.3275C72.5803 50.0311 72.5244 49.7212 72.4787 49.491ZM64.3914 58.8263C64.2627 59.2242 64.0544 59.4156 63.7073 59.8287C63.1688 60.4671 63.184 60.5789 62.9012 60.733C62.7929 60.7922 62.3577 61.0293 62.0698 60.8549C61.8751 60.7364 61.9479 60.5501 61.6787 60.2199C61.4585 59.9507 61.2875 59.9253 61.2875 59.7796C61.2875 59.6205 61.4941 59.546 61.7769 59.3394C62.2832 58.9685 62.1765 58.7941 62.632 58.4605C62.8217 58.3217 63.1925 58.0558 63.6819 58.0694C63.7699 58.0711 64.2745 58.0863 64.4151 58.3877C64.454 58.4673 64.471 58.5825 64.3914 58.8263Z" fill="#343029"/>
<path d="M31.5297 29.513C31.6093 29.4385 31.8751 29.5808 32.0428 29.7332C32.1647 29.8432 32.3865 30.0972 32.312 30.2462C32.2646 30.3428 32.1444 30.292 31.9462 30.4173C31.8819 30.4579 31.6838 30.5951 31.6279 30.8084C31.5771 31.0032 31.6956 31.0675 31.7007 31.2978C31.7092 31.6077 31.5009 31.8447 31.3824 31.9819C31.2892 32.0886 30.915 32.5187 30.6254 32.3968C30.4578 32.3257 30.3393 32.0801 30.4053 31.9328C30.49 31.7448 30.8066 31.8718 31.0166 31.6399C31.1995 31.4383 31.1741 31.1031 31.1639 30.9557C31.1436 30.6696 31.0471 30.6408 31.0911 30.4918C31.1707 30.2242 31.5043 30.2429 31.5805 29.9787C31.6414 29.7552 31.4552 29.5825 31.5297 29.513Z" fill="#343029"/>
<path d="M25.422 30.3919C25.6421 30.209 25.9283 30.2378 25.9842 30.2446C26.4312 30.3005 26.6734 30.7238 26.692 30.7577C26.8309 31.01 26.736 31.1031 26.8867 31.3927C27.0595 31.7229 27.3067 31.8346 27.2779 31.882C27.2406 31.9413 26.8004 31.8278 26.4465 31.5163C26.1366 31.2419 26.1976 31.0828 25.9097 30.905C25.5998 30.7136 25.2984 30.7526 25.2747 30.612C25.2611 30.5257 25.361 30.4427 25.422 30.3919Z" fill="#343029"/>
<path d="M34.7576 22.9869C34.3122 22.5839 33.811 22.2419 33.3894 21.8135C33.22 21.6424 33.0219 21.4291 32.7374 21.4223C32.4902 21.4172 32.3056 21.5713 32.0533 21.7813C31.95 21.8676 31.6232 22.1538 31.3692 22.6601C31.2456 22.9057 31.1796 23.1241 31.1406 23.2799C31.4149 23.5254 31.6706 23.6592 31.8569 23.7354C32.2176 23.8844 32.4682 23.8793 32.7036 24.1266C32.8221 24.2502 32.8102 24.306 32.9322 24.4855C33.1472 24.8056 33.3843 24.9258 33.6823 25.1375C34.4426 25.6776 34.656 26.1348 34.8219 26.0502C34.9557 25.9824 34.7965 25.698 34.9845 25.2679C35.142 24.9055 35.4332 24.6989 35.506 24.6481C35.8532 24.411 36.0699 24.4906 36.1258 24.3552C36.2122 24.1384 35.7008 23.8421 34.7576 22.9869Z" fill="#343029"/>
<path d="M30.0651 23.8675C30.4038 23.5864 30.8576 23.7913 30.8796 23.8031C31.1116 23.9115 31.0709 24.0402 31.3351 24.2265C31.7042 24.4855 31.904 24.323 32.1496 24.5516C32.3917 24.7785 32.2461 24.9834 32.5086 25.3017C32.6593 25.4846 32.7338 25.449 33.1605 25.7251C33.6482 26.04 33.931 26.2229 33.9428 26.4752C33.9496 26.6378 33.8344 26.6428 33.6177 27.095C33.4551 27.4302 33.4501 27.5691 33.3569 27.5843C33.2045 27.608 33.1757 27.2491 32.8032 26.9984C32.5492 26.8274 32.3883 26.8782 32.1834 26.6733C32.0531 26.5412 31.9887 26.3905 31.9548 26.2822C31.7974 26.2246 31.5738 26.1213 31.369 25.9232C30.9761 25.5439 31.0658 25.2204 30.717 24.9783C30.3513 24.7243 30.0329 24.9275 29.8704 24.6853C29.7264 24.4703 29.8128 24.0774 30.0651 23.8675Z" fill="#343029"/>
<path d="M21.2817 32.1022C21.1428 32.0734 20.9803 32.2783 20.6619 32.688C20.4655 32.9404 20.369 33.0674 20.3029 33.2096C20.2386 33.3501 20.071 33.721 20.1726 34.1545C20.2505 34.4864 20.4553 34.6997 20.6281 34.8707C21.2681 35.5024 21.766 35.863 22.191 36.2068C23.2087 37.0297 23.2239 37.2821 23.7878 37.4446C23.9775 37.4988 24.499 37.6309 25.0578 37.4124C25.659 37.1788 26.2432 36.6047 26.1331 36.2728C26.0908 36.1458 25.9773 36.1475 25.5472 35.8817C25.3457 35.7564 25.1848 35.6361 24.8631 35.3923C24.6243 35.2128 24.2772 34.9503 23.9182 34.61C23.4627 34.1782 23.5626 34.1646 22.9412 33.5347C22.3485 32.9353 22.1453 32.8337 22.0284 32.7846C21.9268 32.7422 21.8066 32.705 21.6695 32.5898C21.407 32.3646 21.4307 32.1326 21.2817 32.1022Z" fill="#343029"/>
<path d="M58.0823 60.4214C58.0332 60.3876 57.9333 60.3469 57.4303 60.5196C57.1205 60.6263 57.1543 60.6433 57.007 60.6822C56.56 60.8007 56.3618 60.5941 56.1603 60.7465C55.9775 60.8854 55.9453 61.1157 55.8996 61.4307C55.8521 61.7592 55.8234 62.4229 56.0621 62.5059C56.245 62.5703 56.4262 62.235 56.648 62.3112C56.8275 62.3721 56.7869 62.6177 56.9731 62.7023C57.2068 62.8073 57.6318 62.5838 57.6894 62.3112C57.7351 62.0995 57.5235 62.0267 57.5268 61.7253C57.5302 61.4205 57.7504 61.1783 57.7876 61.1394C57.9891 60.9176 58.1754 60.921 58.211 60.7482C58.2364 60.6297 58.1788 60.4875 58.0823 60.4214Z" fill="#343029"/>
<path d="M69.5492 37.7138C69.7795 37.2668 70.5415 37.26 70.7549 37.2583C71.8657 37.2482 72.7107 38.0644 73.0358 38.3658C73.2559 38.5707 74.5226 39.7848 74.6648 41.5916C74.7444 42.6042 74.4023 42.9327 74.6326 44.1976C74.7376 44.775 74.8544 44.9528 74.8934 45.5658C74.9476 46.404 74.7596 46.5293 74.7952 47.3895C74.8274 48.1566 75.0068 48.7967 75.0881 49.0829C75.3658 50.0548 75.6012 50.17 75.5115 50.6136C75.4031 51.1538 75.0187 51.1758 74.8917 51.8515C74.8172 52.2477 74.8714 52.6676 74.8917 52.8285C74.956 53.3382 75.078 53.4804 74.9899 53.7412C74.89 54.0359 74.6208 54.1866 74.3702 54.3271C73.9333 54.5743 73.6928 54.5185 73.0341 54.7504C72.6802 54.8757 72.5126 55.0857 72.4144 55.0112C72.3297 54.9469 72.3551 54.7335 72.4465 54.5879C72.5684 54.3915 72.7835 54.3559 73.1306 54.2628C73.7859 54.0867 74.1128 53.9969 74.2702 53.8073C74.5446 53.4754 74.4531 52.9691 74.4328 52.8624C74.3735 52.5356 74.2499 52.5356 74.172 52.2104C74.0789 51.8176 74.2398 51.7312 74.2702 51.0708C74.2889 50.656 74.3007 50.319 74.1077 49.9956C73.9621 49.7517 73.8655 49.789 73.7487 49.5722C73.5557 49.2099 73.7131 48.8915 73.7487 48.3988C73.786 47.884 73.6319 47.9517 73.5201 47.0305C73.405 46.0874 73.559 45.9621 73.3897 45.2712C73.2509 44.709 73.1323 44.7242 73.0646 44.2941C72.9579 43.6219 73.2051 43.3137 73.3254 42.633C73.4744 41.788 73.2949 41.131 73.0002 40.0591C72.7429 39.121 72.604 38.6435 72.1536 38.2997C71.6219 37.895 70.9632 37.8764 70.9158 37.8764C70.1893 37.8662 69.6695 38.2659 69.5154 38.0711C69.4256 37.9594 69.5357 37.7392 69.5492 37.7138Z" fill="#343029"/>
<path d="M73.0678 49.8669C73.1389 49.811 73.3184 49.8889 73.4268 49.9972C73.5622 50.1327 73.5504 50.28 73.5893 50.8117C73.6385 51.4755 73.6791 51.5128 73.6215 51.6906C73.5521 51.909 73.4742 51.909 73.3607 52.2443C73.3015 52.4204 73.2879 52.5237 73.1982 52.5694C73.0881 52.6253 72.9103 52.5762 72.807 52.4712C72.5378 52.2003 72.7342 51.5246 72.9374 51.1352C73.0475 50.9252 73.0915 50.9269 73.1321 50.7762C73.2558 50.3291 72.9493 49.96 73.0678 49.8669Z" fill="#343029"/>
<path d="M70.9494 54.1341C70.9613 53.9546 71.454 53.8513 71.5032 53.8411C71.664 53.8072 71.6962 53.8276 71.9925 53.8089C72.4819 53.7768 72.6275 53.704 72.6766 53.7768C72.7427 53.8767 72.5513 54.1459 72.3515 54.2983C72.0179 54.5523 71.6352 54.5032 71.5692 54.493C71.2898 54.4524 70.9393 54.2882 70.9494 54.1341Z" fill="#343029"/>
<path d="M40.424 56.6588C40.3631 56.5809 39.999 56.7367 39.7399 56.9517C39.6112 57.0584 39.2675 57.3446 39.2506 57.7832C39.237 58.1625 39.4741 58.5367 39.5926 58.5164C39.6976 58.4978 39.6332 58.1879 39.7873 57.7341C40.0193 57.055 40.4985 56.7536 40.424 56.6588Z" fill="#343029"/>
<path d="M42.0293 40.0557V35.9257H41.3672L41.8921 35.2907H43.7836V37.4141L45.3296 35.9257H44.2831L44.8046 35.2907H46.984L45.0959 37.0687L46.6216 39.3818H47.3785L46.8197 40.0557H45.0146L43.7819 38.1507V39.3801H44.4101L43.8513 40.054H42.0293V40.0557Z" fill="#957844"/>
<path d="M49.3758 40.5807V40.1387C48.6816 40.0659 48.1279 39.8068 47.713 39.3649C47.2981 38.9229 47.0898 38.3557 47.0898 37.6665C47.0898 36.9824 47.2981 36.4202 47.713 35.9799C48.1279 35.5397 48.6833 35.284 49.3758 35.2111V34.925L50.1395 34.6659V35.2111C50.8355 35.2823 51.3909 35.538 51.8041 35.9765C52.2189 36.4168 52.4255 36.979 52.4255 37.6665C52.4255 38.359 52.2189 38.9263 51.8041 39.3683C51.3892 39.8085 50.8355 40.0659 50.1395 40.1387V40.3216L49.3758 40.5807ZM49.3758 36.8791V35.8986C49.2251 35.919 49.0778 35.9562 48.9339 36.0121V39.3361C49.0863 39.3954 49.2336 39.4343 49.3758 39.4529V38.6892L50.1395 38.4336V39.4546C50.2818 39.4377 50.4291 39.3988 50.5815 39.3378V36.0138C50.4376 35.9579 50.2902 35.9207 50.1395 35.9003V36.6149L49.3758 36.8791Z" fill="#957844"/>
<path d="M55.6833 38.6537H55.0618V39.3818H55.8933L55.3345 40.0557H53.3075V35.9257H52.6133L53.1721 35.2907H55.685C57.1734 35.2907 57.9185 35.836 57.9185 36.9265C57.9185 37.4717 57.7288 37.8951 57.3512 38.1999C56.9719 38.5013 56.4165 38.6537 55.6833 38.6537ZM55.0618 37.978H55.7036C55.856 37.978 55.9678 37.9729 56.0355 37.9645V35.924H55.0618V37.978Z" fill="#957844"/>
<path d="M58.6311 35.9257L59.1526 35.2907H61.0339L62.7052 39.3818H63.3673L62.5291 40.9905H61.735L62.2176 40.0574H58.372L58.7378 40.9905H57.9436L57.3086 39.3818H57.9029L59.5743 36.3609L59.3982 35.9257H58.6311ZM58.67 39.3818H60.7799L59.896 37.1652L58.67 39.3818Z" fill="#957844"/>
</g>
<defs>
<clipPath id="clip0_5_335">
<rect width="96" height="96" fill="white"/>
</clipPath>
</defs>
</svg>
